<?xml version="1.0" encoding="UTF-8" standalone="no"?>
<!DOCTYPE svg PUBLIC "-//W3C//DTD SVG 1.1//EN"
 "http://www.w3.org/Graphics/SVG/1.1/DTD/svg11.dtd">
<!-- Generated by graphviz version 2.38.0 (20140413.2041)
 -->
<!-- Title: nfiavillumina_DAG Pages: 1 -->
<svg width="725pt" height="666pt"
 viewBox="0.00 0.00 724.84 665.80" xmlns="http://www.w3.org/2000/svg" xmlns:xlink="http://www.w3.org/1999/xlink">
<g id="graph0" class="graph" transform="scale(1 1) rotate(0) translate(4 661.8)">
<title>nfiavillumina_DAG</title>
<polygon fill="white" stroke="none" points="-4,4 -4,-661.8 720.844,-661.8 720.844,4 -4,4"/>
<!-- p0 -->
<g id="node1" class="node"><title>p0</title>
<ellipse fill="black" stroke="black" cx="407.844" cy="-639.2" rx="3.6" ry="3.6"/>
<text text-anchor="middle" x="342.244" y="-646.6" font-family="Times,serif" font-size="14.00">Channel.fromFilePairs</text>
</g>
<!-- p1 -->
<g id="node2" class="node"><title>p1</title>
<ellipse fill="none" stroke="black" cx="407.844" cy="-595.1" rx="3.5" ry="3.5"/>
<text text-anchor="middle" x="391.844" y="-602.4" font-family="Times,serif" font-size="14.00">map</text>
</g>
<!-- p0&#45;&gt;p1 -->
<g id="edge1" class="edge"><title>p0&#45;&gt;p1</title>
<path fill="none" stroke="black" d="M407.844,-635.438C407.844,-630.146 407.844,-618.279 407.844,-608.954"/>
<polygon fill="black" stroke="black" points="411.344,-608.928 407.844,-598.928 404.344,-608.928 411.344,-608.928"/>
</g>
<!-- p2 -->
<g id="node3" class="node"><title>p2</title>
<ellipse fill="none" stroke="black" cx="407.844" cy="-551.1" rx="3.5" ry="3.5"/>
<text text-anchor="middle" x="393.344" y="-558.4" font-family="Times,serif" font-size="14.00">into</text>
</g>
<!-- p1&#45;&gt;p2 -->
<g id="edge2" class="edge"><title>p1&#45;&gt;p2</title>
<path fill="none" stroke="black" d="M407.844,-591.344C407.844,-586.066 407.844,-574.226 407.844,-564.923"/>
<polygon fill="black" stroke="black" points="411.344,-564.921 407.844,-554.921 404.344,-564.921 411.344,-564.921"/>
</g>
<!-- p3 -->
<g id="node4" class="node"><title>p3</title>
<ellipse fill="none" stroke="black" cx="501.844" cy="-478.6" rx="27.0966" ry="18"/>
<text text-anchor="middle" x="501.844" y="-474.9" font-family="Times,serif" font-size="14.00">irma</text>
</g>
<!-- p2&#45;&gt;p3 -->
<g id="edge3" class="edge"><title>p2&#45;&gt;p3</title>
<path fill="none" stroke="black" d="M410.167,-548.357C419.131,-541.634 452.15,-516.87 475.993,-498.988"/>
<polygon fill="black" stroke="black" points="478.401,-501.557 484.301,-492.757 474.201,-495.957 478.401,-501.557"/>
<text text-anchor="middle" x="486.844" y="-518.4" font-family="Times,serif" font-size="14.00">samples_ch</text>
</g>
<!-- p6 -->
<g id="node5" class="node"><title>p6</title>
<ellipse fill="none" stroke="black" cx="382.844" cy="-391.6" rx="3.5" ry="3.5"/>
<text text-anchor="middle" x="368.344" y="-398.9" font-family="Times,serif" font-size="14.00">join</text>
</g>
<!-- p2&#45;&gt;p6 -->
<g id="edge4" class="edge"><title>p2&#45;&gt;p6</title>
<path fill="none" stroke="black" d="M407.139,-547.67C404.983,-540.147 398.404,-516.549 394.844,-496.6 389.004,-463.879 385.384,-424.835 383.792,-405.2"/>
<polygon fill="black" stroke="black" points="387.279,-404.893 383.024,-395.19 380.3,-405.429 387.279,-404.893"/>
<text text-anchor="middle" x="430.344" y="-474.9" font-family="Times,serif" font-size="14.00">samples_ch2</text>
</g>
<!-- p3&#45;&gt;p6 -->
<g id="edge5" class="edge"><title>p3&#45;&gt;p6</title>
<path fill="none" stroke="black" d="M477.084,-470.784C452.621,-463.651 417.375,-452.18 406.844,-442.6 395.873,-432.62 389.415,-416.548 386.012,-405.329"/>
<polygon fill="black" stroke="black" points="389.307,-404.094 383.389,-395.306 382.535,-405.866 389.307,-404.094"/>
<text text-anchor="middle" x="456.844" y="-431.4" font-family="Times,serif" font-size="14.00">consensus_seq_ch</text>
</g>
<!-- p5 -->
<g id="node6" class="node"><title>p5</title>
<ellipse fill="black" stroke="black" cx="613.844" cy="-391.6" rx="1.8" ry="1.8"/>
</g>
<!-- p3&#45;&gt;p5 -->
<g id="edge6" class="edge"><title>p3&#45;&gt;p5</title>
<path fill="none" stroke="black" d="M527.381,-471.982C545.693,-466.875 570.004,-457.765 586.844,-442.6 598.802,-431.831 606.483,-414.484 610.483,-403.315"/>
<polygon fill="black" stroke="black" points="613.931,-404.023 613.625,-393.432 607.26,-401.902 613.931,-404.023"/>
<text text-anchor="middle" x="657.844" y="-431.4" font-family="Times,serif" font-size="14.00">irma_read_counts_ch</text>
</g>
<!-- p4 -->
<g id="node7" class="node"><title>p4</title>
<ellipse fill="black" stroke="black" cx="521.844" cy="-391.6" rx="1.8" ry="1.8"/>
</g>
<!-- p3&#45;&gt;p4 -->
<g id="edge7" class="edge"><title>p3&#45;&gt;p4</title>
<path fill="none" stroke="black" d="M505.891,-460.399C509.863,-443.517 515.805,-418.263 519.205,-403.816"/>
<polygon fill="black" stroke="black" points="522.706,-404.218 521.589,-393.682 515.892,-402.615 522.706,-404.218"/>
<text text-anchor="middle" x="548.344" y="-431.4" font-family="Times,serif" font-size="14.00">irma_tgz_ch</text>
</g>
<!-- p7 -->
<g id="node8" class="node"><title>p7</title>
<ellipse fill="none" stroke="black" cx="382.844" cy="-304.6" rx="3.5" ry="3.5"/>
<text text-anchor="middle" x="368.344" y="-311.9" font-family="Times,serif" font-size="14.00">into</text>
</g>
<!-- p6&#45;&gt;p7 -->
<g id="edge8" class="edge"><title>p6&#45;&gt;p7</title>
<path fill="none" stroke="black" d="M382.844,-387.772C382.844,-377.091 382.844,-338.786 382.844,-318.468"/>
<polygon fill="black" stroke="black" points="386.344,-318.184 382.844,-308.184 379.344,-318.185 386.344,-318.184"/>
</g>
<!-- p14 -->
<g id="node9" class="node"><title>p14</title>
<ellipse fill="none" stroke="black" cx="304.844" cy="-217.6" rx="112.38" ry="18"/>
<text text-anchor="middle" x="304.844" y="-213.9" font-family="Times,serif" font-size="14.00">blastn_irma_consensus_seqs</text>
</g>
<!-- p7&#45;&gt;p14 -->
<g id="edge9" class="edge"><title>p7&#45;&gt;p14</title>
<path fill="none" stroke="black" d="M380.534,-301.85C374.161,-296.967 355.94,-282.632 342.844,-268.6 335.776,-261.028 328.721,-252.19 322.643,-244.069"/>
<polygon fill="black" stroke="black" points="325.431,-241.952 316.702,-235.948 319.782,-246.085 325.431,-241.952"/>
<text text-anchor="middle" x="397.844" y="-257.4" font-family="Times,serif" font-size="14.00">reads_consensus_ch</text>
</g>
<!-- p8 -->
<g id="node10" class="node"><title>p8</title>
<ellipse fill="none" stroke="black" cx="487.844" cy="-217.6" rx="52.7911" ry="18"/>
<text text-anchor="middle" x="487.844" y="-213.9" font-family="Times,serif" font-size="14.00">irma_report</text>
</g>
<!-- p7&#45;&gt;p8 -->
<g id="edge10" class="edge"><title>p7&#45;&gt;p8</title>
<path fill="none" stroke="black" d="M385.809,-302.708C396.066,-299.508 430.623,-287.772 452.844,-268.6 460.823,-261.716 467.884,-252.635 473.537,-244.102"/>
<polygon fill="black" stroke="black" points="476.567,-245.859 478.898,-235.524 470.63,-242.15 476.567,-245.859"/>
<text text-anchor="middle" x="525.344" y="-257.4" font-family="Times,serif" font-size="14.00">reads_consensus_ch2</text>
</g>
<!-- p15 -->
<g id="node17" class="node"><title>p15</title>
<ellipse fill="none" stroke="black" cx="170.844" cy="-145.1" rx="3.5" ry="3.5"/>
<text text-anchor="middle" x="148.844" y="-152.4" font-family="Times,serif" font-size="14.00">collect</text>
</g>
<!-- p14&#45;&gt;p15 -->
<g id="edge17" class="edge"><title>p14&#45;&gt;p15</title>
<path fill="none" stroke="black" d="M273.765,-200.249C244.675,-184.944 202.759,-162.891 182.578,-152.273"/>
<polygon fill="black" stroke="black" points="184.122,-149.131 173.642,-147.572 180.863,-155.326 184.122,-149.131"/>
<text text-anchor="middle" x="263.844" y="-170.4" font-family="Times,serif" font-size="14.00">blastn_ch</text>
</g>
<!-- p9 -->
<g id="node11" class="node"><title>p9</title>
<ellipse fill="none" stroke="black" cx="487.844" cy="-145.1" rx="3.5" ry="3.5"/>
<text text-anchor="middle" x="455.344" y="-152.4" font-family="Times,serif" font-size="14.00">collectFile</text>
</g>
<!-- p8&#45;&gt;p9 -->
<g id="edge11" class="edge"><title>p8&#45;&gt;p9</title>
<path fill="none" stroke="black" d="M487.844,-199.534C487.844,-186.98 487.844,-170.189 487.844,-158.804"/>
<polygon fill="black" stroke="black" points="491.344,-158.762 487.844,-148.762 484.344,-158.762 491.344,-158.762"/>
<text text-anchor="middle" x="544.844" y="-170.4" font-family="Times,serif" font-size="14.00">consensus_report_ch</text>
</g>
<!-- p10 -->
<g id="node12" class="node"><title>p10</title>
<ellipse fill="none" stroke="black" cx="487.844" cy="-72.6" rx="89.0842" ry="18"/>
<text text-anchor="middle" x="487.844" y="-68.9" font-family="Times,serif" font-size="14.00">compile_irma_reports</text>
</g>
<!-- p9&#45;&gt;p10 -->
<g id="edge12" class="edge"><title>p9&#45;&gt;p10</title>
<path fill="none" stroke="black" d="M487.844,-141.422C487.844,-134.76 487.844,-116.84 487.844,-101.092"/>
<polygon fill="black" stroke="black" points="491.344,-100.703 487.844,-90.7026 484.344,-100.703 491.344,-100.703"/>
<text text-anchor="middle" x="541.844" y="-112.4" font-family="Times,serif" font-size="14.00">collected_report_ch</text>
</g>
<!-- p11 -->
<g id="node13" class="node"><title>p11</title>
<ellipse fill="black" stroke="black" cx="487.844" cy="-1.8" rx="1.8" ry="1.8"/>
</g>
<!-- p10&#45;&gt;p11 -->
<g id="edge13" class="edge"><title>p10&#45;&gt;p11</title>
<path fill="none" stroke="black" d="M487.844,-54.5933C487.844,-42.0587 487.844,-25.3431 487.844,-14.3356"/>
<polygon fill="black" stroke="black" points="491.344,-14.1898 487.844,-4.18985 484.344,-14.1899 491.344,-14.1898"/>
<text text-anchor="middle" x="573.844" y="-25.4" font-family="Times,serif" font-size="14.00">compiled_consensus_report_ch</text>
</g>
<!-- p12 -->
<g id="node14" class="node"><title>p12</title>
<ellipse fill="none" stroke="black" cx="109.844" cy="-391.6" rx="95.5831" ry="18"/>
<text text-anchor="middle" x="109.844" y="-387.9" font-family="Times,serif" font-size="14.00">download_influenza_db</text>
</g>
<!-- p13 -->
<g id="node15" class="node"><title>p13</title>
<ellipse fill="none" stroke="black" cx="154.844" cy="-304.6" rx="40.0939" ry="18"/>
<text text-anchor="middle" x="154.844" y="-300.9" font-family="Times,serif" font-size="14.00">blast_db</text>
</g>
<!-- p12&#45;&gt;p13 -->
<g id="edge14" class="edge"><title>p12&#45;&gt;p13</title>
<path fill="none" stroke="black" d="M118.95,-373.399C125.377,-361.259 134.096,-344.79 141.332,-331.123"/>
<polygon fill="black" stroke="black" points="144.471,-332.672 146.057,-322.197 138.285,-329.397 144.471,-332.672"/>
<text text-anchor="middle" x="188.344" y="-344.4" font-family="Times,serif" font-size="14.00">influenza_db_fasta</text>
</g>
<!-- p16 -->
<g id="node16" class="node"><title>p16</title>
<ellipse fill="none" stroke="black" cx="70.8437" cy="-72.6" rx="70.6878" ry="18"/>
<text text-anchor="middle" x="70.8437" y="-68.9" font-family="Times,serif" font-size="14.00">subtyping_report</text>
</g>
<!-- p12&#45;&gt;p16 -->
<g id="edge15" class="edge"><title>p12&#45;&gt;p16</title>
<path fill="none" stroke="black" d="M87.8103,-373.965C69.9897,-358.449 47.8437,-333.546 47.8437,-305.6 47.8437,-305.6 47.8437,-305.6 47.8437,-144.1 47.8437,-128.916 52.7252,-112.76 57.9904,-99.7494"/>
<polygon fill="black" stroke="black" points="61.2421,-101.048 62.0171,-90.4818 54.8219,-98.2587 61.2421,-101.048"/>
<text text-anchor="middle" x="111.344" y="-213.9" font-family="Times,serif" font-size="14.00">influenza_db_metadata</text>
</g>
<!-- p13&#45;&gt;p14 -->
<g id="edge16" class="edge"><title>p13&#45;&gt;p14</title>
<path fill="none" stroke="black" d="M171.2,-288.119C183.152,-277.402 200.127,-263.363 216.844,-253.6 226.836,-247.764 237.986,-242.491 248.902,-237.913"/>
<polygon fill="black" stroke="black" points="250.44,-241.067 258.399,-234.073 247.816,-234.577 250.44,-241.067"/>
<text text-anchor="middle" x="271.844" y="-257.4" font-family="Times,serif" font-size="14.00">influenza_blastn_db</text>
</g>
<!-- p17 -->
<g id="node18" class="node"><title>p17</title>
<ellipse fill="black" stroke="black" cx="70.8437" cy="-1.8" rx="1.8" ry="1.8"/>
</g>
<!-- p16&#45;&gt;p17 -->
<g id="edge19" class="edge"><title>p16&#45;&gt;p17</title>
<path fill="none" stroke="black" d="M70.8437,-54.5933C70.8437,-42.0587 70.8437,-25.3431 70.8437,-14.3356"/>
<polygon fill="black" stroke="black" points="74.3438,-14.1898 70.8437,-4.18985 67.3438,-14.1899 74.3438,-14.1898"/>
<text text-anchor="middle" x="131.844" y="-25.4" font-family="Times,serif" font-size="14.00">subtyping_report_xlsx</text>
</g>
<!-- p15&#45;&gt;p16 -->
<g id="edge18" class="edge"><title>p15&#45;&gt;p16</title>
<path fill="none" stroke="black" d="M168.372,-142.357C159.332,-135.984 127.296,-113.399 102.379,-95.8322"/>
<polygon fill="black" stroke="black" points="104.101,-92.7641 93.9113,-89.8626 100.068,-98.4853 104.101,-92.7641"/>
<text text-anchor="middle" x="189.344" y="-112.4" font-family="Times,serif" font-size="14.00">all_blastn_results</text>
</g>
</g>
</svg>
